# xmcd CD database file
#
# Track frame offsets:
#	182
#	3105
#	21790
#	38835
#	56545
#	67747
#	82882
#	103770
#	121890
#	133480
#	150015
#	150807
#	180875
#
# Disc length: 2681 seconds
#
# Revision: 0
# Processed by: cddbd v1.5.1PL2 Copyright (c) Steve Scherf et al.
# Submitted via: CDex 1.51
#
DISCID=830a770d
DTITLE=Bérangère Mastrangelo - Femme d'intérieur
DYEAR=1994
DGENRE=Jazz
TTITLE0=Tag'n
TTITLE1=Après la fête
TTITLE2=Femme d'intérieur
TTITLE3=Mentir
TTITLE4=Inédit
TTITLE5=Placebo
TTITLE6=Le diable
TTITLE7=Le mors aux dents
TTITLE8=Halte dich zurück
TTITLE9=Les trottoirs des Pâquis
TTITLE10=La lune
TTITLE11=Se quitter quand on s'aime encore, Ballade pour ma mort
TTITLE12=Ballade pour une folle
EXTD=YEAR: 1994
EXTT0=
EXTT1=
EXTT2=
EXTT3=
EXTT4=
EXTT5=
EXTT6=
EXTT7=
EXTT8=
EXTT9=
EXTT10=
EXTT11=
EXTT12=
PLAYORDER=
